<svg width="37" height="32" viewBox="0 0 37 32" fill="none" xmlns="http://www.w3.org/2000/svg">
<path d="M2.54205 23.9688C4.08824 26.2852 8.08663 26.2248 12.2778 25.2771C13.5312 29.1371 15.627 32 18.5012 32C21.3745 32 23.4702 29.1389 24.7235 25.2805C28.9105 26.2293 32.9095 26.2922 34.4603 23.9688C36.0236 21.6256 33.9511 18.6583 30.9002 16.0001C33.9523 13.3406 36.0228 10.3732 34.4603 8.03125C33.0287 5.88469 29.193 5.71025 24.7152 6.693C23.4608 2.84825 21.368 0 18.5012 0C15.6344 0 13.5417 2.848 12.2874 6.6925C7.81086 5.71038 3.97522 5.885 2.54205 8.03125C0.978796 10.3744 3.05123 13.3418 6.10221 15.9999C3.05007 18.6594 0.979591 21.6268 2.54205 23.9688ZM4.41994 23.0312C3.47384 21.6152 5.19484 19.417 7.687 17.2975C8.80343 18.1509 9.9776 18.9467 11.118 19.6571C11.2606 20.9748 11.4784 22.2631 11.7727 23.4839C7.97563 24.3111 5.16074 24.1398 4.41994 23.0312ZM15.7912 11.9406C16.5676 11.5529 17.4959 11.1402 18.4991 10.7317C19.4919 11.1342 20.4193 11.5451 21.2111 11.9406C21.9303 12.2996 22.8334 12.8 23.8135 13.3921C23.8803 14.2341 23.9211 15.102 23.9211 16C23.9211 16.8977 23.8805 17.7653 23.8136 18.6068C22.8558 19.1865 21.9569 19.6871 21.2111 20.0594C20.2964 20.5162 19.3914 20.9268 18.5005 21.3026C17.61 20.9267 16.7056 20.5162 15.7912 20.0594C15.072 19.7004 14.1689 19.2 13.1889 18.6079C13.122 17.7659 13.0813 16.898 13.0813 16C13.0813 15.1023 13.1219 14.2348 13.1887 13.3933C14.1466 12.8135 15.0454 12.3129 15.7912 11.9406ZM13.481 10.9608C13.5847 10.3194 13.7015 9.69669 13.8393 9.10837C14.5238 9.30819 15.2061 9.52519 15.8808 9.75556C15.4868 9.939 15.0934 10.1238 14.7072 10.3164C14.324 10.5078 13.9091 10.7275 13.481 10.9608ZM21.1118 9.75062C21.7869 9.51775 22.4718 9.29906 23.1597 9.09581C23.2989 9.68819 23.4171 10.3148 23.5213 10.9611C23.0929 10.7275 22.6778 10.5076 22.2951 10.3164C21.9058 10.1221 21.5092 9.93556 21.1118 9.75062ZM26.0641 14.8335C26.6112 15.2046 27.1557 15.5949 27.6904 15.9935C27.1567 16.3941 26.6133 16.7868 26.0641 17.1612C26.0774 16.7737 26.089 16.3861 26.089 16C26.0891 15.6122 26.0774 15.2227 26.0641 14.8335ZM23.5213 21.0392C23.4137 21.7058 23.2903 22.3496 23.1457 22.9588C22.4633 22.7624 21.7566 22.5326 21.035 22.2798C21.4828 22.0763 21.9106 21.8755 22.2951 21.6836C22.6784 21.4923 23.0933 21.2725 23.5213 21.0392ZM15.9662 22.2794C15.2449 22.5319 14.5386 22.7615 13.8565 22.9577C13.7119 22.3489 13.5886 21.7052 13.481 21.039C13.9095 21.2726 14.3246 21.4925 14.7072 21.6836C15.0906 21.8749 15.5183 22.0757 15.9662 22.2794ZM10.9383 17.1665C10.3912 16.7954 9.84665 16.4051 9.31196 16.0065C9.84564 15.6059 10.3891 15.2132 10.9382 14.8387C10.9249 15.2262 10.9133 15.6139 10.9133 16C10.9133 16.3878 10.9249 16.7773 10.9383 17.1665ZM18.5012 30.125C17.015 30.125 15.4306 28.0246 14.3603 24.7465C15.7931 24.3352 17.1991 23.8489 18.5004 23.3437C19.8007 23.8492 21.2073 24.3363 22.6414 24.7487C21.571 28.0256 19.987 30.125 18.5012 30.125ZM32.5824 23.0312C31.8434 24.1416 29.0278 24.3131 25.2293 23.4853C25.5237 22.2639 25.7418 20.9756 25.8844 19.6576C27.0297 18.9443 28.2083 18.145 29.3276 17.2885C31.8127 19.3899 33.5485 21.5854 32.5824 23.0312ZM32.5824 8.96875C33.5285 10.3848 31.8077 12.583 29.3154 14.7025C28.1991 13.8491 27.0248 13.0533 25.8844 12.3429C25.7426 11.0332 25.5266 9.75231 25.2351 8.53775C28.6258 7.73725 31.656 7.58081 32.5824 8.96875ZM18.5012 1.875C19.9823 1.875 21.5611 3.96106 22.6314 7.21938C21.2713 7.6065 19.8829 8.08319 18.5018 8.63C17.1206 8.083 15.7315 7.60612 14.3711 7.21881C15.4414 3.96081 17.0202 1.875 18.5012 1.875ZM4.41994 8.96875C5.3216 7.618 8.34844 7.76469 11.7617 8.55937C11.4727 9.76731 11.2589 11.0407 11.118 12.3424C9.97269 13.0557 8.79411 13.855 7.67478 14.7115C5.18971 12.6101 3.45389 10.4146 4.41994 8.96875Z" fill="#084482"/>
<path d="M18.502 18.8125C20.298 18.8125 21.7539 17.5533 21.7539 16C21.7539 14.4467 20.298 13.1875 18.502 13.1875C16.706 13.1875 15.25 14.4467 15.25 16C15.25 17.5533 16.706 18.8125 18.502 18.8125Z" fill="#084482"/>
</svg>
