<svg width="263" height="50" viewBox="0 0 263 50" fill="none" xmlns="http://www.w3.org/2000/svg">
<g clip-path="url(#clip0)">
<path d="M33.7073 21.1228C40.0891 15.9095 53.1222 -2.87617 32.7186 0.449527C23.8201 1.79778 10.7869 10.4266 8.18031 20.4037C6.83205 17.7072 5.30403 15.1905 3.68612 12.6737C1.16937 9.25814 -1.61702 11.9547 1.07949 15.3702C9.07289 25.048 13.6815 37.0747 14.2025 49.616C14.8317 43.5937 13.843 36.2233 11.4161 29.0326C12.5846 29.3921 13.9329 29.5719 15.1014 29.5719C19.236 36.403 25.6178 42.2455 32.7186 44.942C39.2801 47.5486 47.9988 46.0206 44.4035 35.5042C42.5159 29.7516 38.1116 24.7182 33.7073 21.1228ZM34.6061 2.87639C45.9315 1.61802 33.7972 15.7298 29.8423 18.3364C26.1571 15.9095 21.4831 13.7523 16.9889 14.3815C20.2247 10.157 28.1345 3.68534 34.6061 2.87639ZM16.899 17.4376C19.9551 17.1679 23.2808 18.8757 25.8874 20.6734C23.3707 21.9318 20.6742 22.6508 17.8878 22.9205C13.7531 22.9205 12.8543 17.7971 16.899 17.4376ZM32.5388 39.3692C27.2357 37.8412 22.2022 33.5268 18.6068 29.2123C21.573 28.5832 24.5392 27.4147 27.2357 25.7968C28.2244 25.3473 29.2131 24.6283 30.112 23.9991C33.2579 26.8754 36.5836 30.7404 37.842 35.1447C39.1003 39.9085 35.6848 40.268 32.5388 39.3692Z" fill="#F5A623"/>
<path d="M77.1207 9.25837H61.6606C61.1213 9.25837 60.6719 9.70779 60.6719 10.2471H60.582V34.5157C60.582 35.055 61.0315 35.5044 61.5708 35.5044C62.0202 35.5044 62.4696 35.055 62.5595 34.5157V23.5499H75.6825C76.2218 23.5499 76.4915 23.1005 76.4915 22.6511C76.4915 22.1118 76.1319 21.8421 75.6825 21.8421H62.4696V11.1459H77.1207C77.66 11.1459 77.9296 10.6965 77.9296 10.2471C77.9296 9.97744 77.66 9.61791 77.1207 9.25837ZM84.2215 8H84.1316C83.6822 8 83.4125 8.35954 83.4125 8.80895V34.4258C83.4125 34.9651 83.7721 35.3247 84.2215 35.3247C84.7608 35.3247 85.0304 34.8753 85.0304 34.4258V8.98872C85.0304 8.35954 84.7608 8 84.2215 8ZM106.603 17.1681C106.603 16.6288 106.243 16.2693 105.794 16.2693C105.254 16.2693 104.985 16.7187 104.985 17.1681V27.8643C104.985 31.4597 102.198 34.336 98.7827 34.2461C95.1873 34.2461 93.12 31.7293 93.12 27.7744V17.1681C93.12 16.6288 92.7605 16.2693 92.311 16.2693C91.9515 16.2693 91.5021 16.7187 91.5021 17.1681V28.0441C91.5021 32.5383 94.1986 35.864 98.6029 35.864C101.299 35.9539 103.816 34.4258 105.075 31.9091V34.6955C105.075 35.2348 105.524 35.5044 105.883 35.5044C106.423 35.5044 106.692 35.055 106.692 34.6955H106.603V17.1681ZM121.433 18.067C121.793 18.067 122.242 17.7074 122.242 17.258C122.242 16.8985 121.793 16.4491 121.433 16.4491H115.771V11.1459C115.771 10.6965 115.321 10.2471 114.962 10.2471H114.872C114.422 10.2471 114.153 10.6965 114.153 11.1459V16.4491H112.175C111.726 16.4491 111.366 16.7187 111.366 17.1681C111.366 17.6176 111.726 18.067 112.175 18.067H114.153V30.4709C114.153 33.9764 116.4 35.6842 119.007 35.6842C119.905 35.6842 120.804 35.5044 121.613 35.2348C121.883 35.055 122.152 34.7854 122.152 34.4258C122.152 33.9764 121.793 33.7068 121.433 33.7068C120.804 33.8865 120.085 33.9764 119.366 33.9764C117.209 33.9764 115.771 32.9877 115.771 30.2912V18.067H121.433ZM135.365 18.067C135.815 18.067 136.174 17.7074 136.174 17.258C136.174 16.8985 135.815 16.4491 135.365 16.4491H129.703V11.1459C129.703 10.6965 129.343 10.2471 128.894 10.2471H128.804C128.354 10.2471 128.085 10.6965 128.085 11.1459V16.4491H126.107C125.748 16.4491 125.298 16.7187 125.298 17.1681C125.298 17.6176 125.748 18.067 126.107 18.067H128.085V30.4709C128.085 33.9764 130.332 35.6842 133.028 35.6842C133.837 35.6842 134.736 35.5044 135.545 35.2348C135.905 35.055 136.084 34.7854 136.084 34.4258C136.084 33.9764 135.815 33.7068 135.365 33.7068C134.736 33.8865 134.017 33.9764 133.298 33.9764C131.141 33.9764 129.703 32.9877 129.703 30.2912V18.067H135.365ZM147.679 15.9098C142.916 15.9098 139.32 20.2242 139.32 25.8869V25.9768C139.32 31.999 143.275 35.9539 148.039 35.9539C150.556 36.0437 153.162 34.9651 154.87 32.8978C155.14 32.718 155.23 32.4484 155.23 32.2686C155.23 31.8192 154.78 31.3698 154.421 31.3698L153.881 31.5496C153.168 32.3809 152.287 33.0512 151.295 33.5161C150.303 33.981 149.224 34.2298 148.129 34.2461C144.623 34.2461 141.478 31.4597 141.118 26.7857H155.14C155.499 26.7857 155.949 26.3363 155.949 25.8869C155.949 20.2242 152.713 15.9098 147.679 15.9098ZM141.028 24.988C141.298 20.8534 144.084 17.6176 147.59 17.6176C151.634 17.6176 153.792 21.123 153.971 24.988H141.028ZM169.701 16.1794C166.465 16.4491 163.769 18.6962 162.6 21.932V17.258C162.6 16.8985 162.151 16.4491 161.791 16.4491C161.252 16.4491 160.982 16.7187 160.892 17.258V34.8753C160.892 35.3247 161.252 35.7741 161.701 35.7741C162.151 35.7741 162.51 35.4146 162.6 34.8753V27.8643C162.6 21.6623 165.926 18.6962 169.701 18.2468H169.791C170.33 18.2468 170.6 17.7074 170.6 17.258C170.6 16.6288 170.24 16.1794 169.701 16.1794Z" fill="black"/>
<path d="M199.992 15.1902C198.823 15.1902 197.745 16.089 197.475 17.3474L194.419 27.5941L191.453 17.3474C191.183 16.089 190.015 15.1003 188.666 15.1003H188.397C187.048 15.1003 185.88 15.9093 185.61 17.3474L182.644 27.4144L179.768 17.2575C179.408 16.089 178.42 15.1003 177.161 15.1003H177.071C175.723 15.1003 174.734 16.2688 174.734 17.7069L174.914 19.0552L179.498 33.1669C179.858 34.6051 181.026 35.5938 182.464 35.6837H182.644C183.992 35.6837 185.071 34.695 185.52 33.2568L188.487 23.1898L191.453 33.2568C191.812 34.695 192.981 35.6837 194.329 35.6837H194.599C196.037 35.6837 197.205 34.695 197.565 33.1669L202.149 18.8754L202.419 17.7968V17.7069C202.419 16.2688 201.34 15.1902 199.992 15.1902ZM213.205 15.1902C211.137 15.1003 209.16 15.5497 207.182 16.1789C206.374 16.5384 205.924 17.3474 205.924 18.3361C205.924 19.6844 206.913 20.6731 208.171 20.5832C208.351 20.5832 208.621 20.5832 208.89 20.4034C210.059 20.0439 211.317 19.8641 212.576 19.8641C215.272 19.8641 216.62 21.1225 216.62 23.5494V23.819C215.182 23.2797 213.564 23.1 212.036 23.1C207.632 23.1 204.576 25.1673 204.576 29.5716C204.576 33.4366 207.542 35.6837 210.958 35.6837C213.115 35.7736 215.182 34.7849 216.62 33.1669C216.71 34.6051 217.789 35.5938 219.137 35.5938C220.575 35.5938 221.744 34.3354 221.744 32.8074V23.819C221.834 21.5719 221.114 19.235 219.676 17.5272C218.148 16.089 216.081 15.1902 213.205 15.1902ZM216.71 28.2233C216.71 30.3805 214.912 31.7288 212.486 31.6389C210.778 31.6389 209.609 30.7401 209.609 29.2121V29.1222C209.609 27.4144 211.047 26.3358 213.295 26.3358C214.373 26.3358 215.632 26.6953 216.71 27.1447V28.2233ZM239.99 15.1003C238.911 15.1003 237.833 15.8194 237.563 17.0777L233.429 28.6728L229.474 17.1676C229.114 15.9093 228.125 15.1003 226.867 15.1003C225.519 15.1003 224.44 16.1789 224.26 17.7069C224.26 18.1564 224.44 18.6058 224.62 19.0552L230.373 33.1669C230.732 34.6051 231.901 35.5938 233.339 35.6837H233.698C234.957 35.5938 236.215 34.695 236.754 33.2568L242.327 19.1451L242.597 17.7968V17.7069C242.597 16.2688 241.518 15.1003 239.99 15.1003ZM253.922 15.0104C248.439 15.0104 244.664 19.6844 244.664 25.3471V26.2459C244.844 31.7288 249.338 35.9533 254.461 35.6837C256.798 35.6837 259.046 34.8747 260.933 33.2568C261.472 32.8074 261.652 32.2681 261.652 31.6389V31.549C261.652 30.2907 260.753 29.3019 259.585 29.3019C259.135 29.3019 258.686 29.3918 258.326 29.7514C257.279 30.6535 255.933 31.134 254.551 31.0996C252.304 31.1895 250.327 29.5716 250.057 27.1447H260.574C261.922 27.0548 263 25.7965 262.911 24.3583V23.9089C262.911 19.0552 258.866 14.8307 253.922 15.0104ZM249.877 23.819C250.327 21.2124 251.765 19.5945 253.922 19.5945C256.079 19.5945 257.517 21.3023 257.787 23.819H249.877Z" fill="black" stroke="black" stroke-width="0.710082"/>
</g>
<defs>
<clipPath id="clip0">
<rect width="263" height="49.7057" fill="white"/>
</clipPath>
</defs>
</svg>
