<svg width="107" height="51" viewBox="0 0 107 51" fill="none" xmlns="http://www.w3.org/2000/svg">
<g clip-path="url(#clip0)">
<path d="M58.7695 25.317H43.1252C43.1775 26.9057 43.7996 28.4226 44.8779 29.5905C45.3944 30.1105 46.0127 30.5182 46.694 30.7882C47.3754 31.0581 48.1052 31.1845 48.8377 31.1593C50.0927 31.1593 51.1313 30.8671 51.9535 30.2613C52.765 29.6662 53.6846 28.5627 54.7124 26.9507L58.9643 29.3308C58.3151 30.4452 57.6119 31.4081 56.887 32.2195C56.1513 33.0093 55.3723 33.6584 54.5285 34.1886C53.6889 34.6956 52.7768 35.0714 51.8237 35.3029C50.7889 35.5488 49.7281 35.6687 48.6646 35.66C45.408 35.66 42.7898 34.6213 40.8208 32.5225C38.8517 30.4236 37.8672 27.6323 37.8672 24.1485C37.8672 20.6973 38.8193 17.906 40.7342 15.7746C42.66 13.6649 45.2133 12.6155 48.3941 12.6155C51.6073 12.6155 54.139 13.6325 56.0107 15.6773C57.8607 17.7112 58.7912 20.5242 58.7912 24.1269L58.7695 25.317ZM53.5872 21.195C52.884 18.501 51.1962 17.1595 48.5023 17.1595C47.6404 17.1482 46.79 17.3581 46.0324 17.7691C45.2748 18.1802 44.6352 18.7786 44.1747 19.5072C43.85 20.029 43.6091 20.5985 43.4606 21.195H53.5872ZM62.5237 13.2213H67.5654V15.1688C68.2711 14.3696 69.1047 13.6933 70.0321 13.1672C70.8415 12.7796 71.7316 12.5905 72.6287 12.6155C73.9594 12.6155 75.3442 13.0482 76.794 13.9138L74.4895 18.5227C73.685 17.8897 72.6997 17.5297 71.6766 17.4949C68.9394 17.4949 67.5654 19.5721 67.5654 23.7266V35.0433H62.5237V13.2213ZM83.6641 13.2213V35.0433H78.6224V13.2213H83.6641ZM77.8651 8.57999C77.8651 7.70365 78.1896 6.9355 78.828 6.308C79.4771 5.65886 80.2344 5.33429 81.1324 5.33429C82.0412 5.33429 82.8202 5.65886 83.4693 6.308C84.1076 6.92468 84.4322 7.69283 84.4322 8.60163C84.4322 9.52124 84.1076 10.2894 83.4585 10.9385C82.8418 11.5877 82.0628 11.9014 81.154 11.9014C80.2452 11.9014 79.4663 11.5769 78.828 10.9277C78.1788 10.2894 77.8542 9.51042 77.8542 8.57999H77.8651ZM93.4985 17.9168V35.0541H88.4352V17.9168H86.6393V13.2213H88.4352V9.22913C88.4352 6.4811 88.9113 4.5445 89.8633 3.4085C91.1833 1.82893 93.0874 1.02832 95.5974 1.02832C96.4954 1.02832 97.6206 1.2988 98.9838 1.81811V6.96796H95.7813C94.7211 6.96796 94.2991 6.96796 93.8988 7.50891C93.5851 8.12559 93.4985 8.67736 93.4985 10.4625V13.2213H101.937V17.9168H93.4985Z" fill="#103A60"/>
<path d="M106.146 13.221V35.043H101.104V13.221H106.146ZM100.347 8.57969C100.347 7.70335 100.671 6.9352 101.31 6.3077C101.959 5.65855 102.716 5.33398 103.614 5.33398C104.523 5.33398 105.302 5.65855 105.94 6.3077C106.589 6.92438 106.914 7.69253 106.914 8.60132C106.914 9.52094 106.589 10.2891 105.94 10.9382C105.324 11.5874 104.545 11.9011 103.636 11.9011C102.727 11.9011 101.948 11.5766 101.31 10.9274C100.661 10.2891 100.336 9.51012 100.336 8.57969H100.347Z" fill="#103A60"/>
<path fill-rule="evenodd" clip-rule="evenodd" d="M14.3675 16.6068C17.8837 19.9607 23.0227 25.0781 23.0227 25.0781C23.0227 25.0781 34.8154 9.67184 45.9806 2.25L46.8462 4.83574C42.7674 7.68114 30.5095 23.3146 25.7058 37.1413C25.7058 37.1413 12.9069 23.1307 10.4727 19.9391L14.3675 16.6068Z" fill="#5FAE46"/>
<path d="M34.0576 48.0475C44.6861 48.0475 54.0385 43.9241 59.389 37.6956H64C60.719 42.2043 55.6957 45.8669 49.5876 48.2042C43.4794 50.5415 36.5707 51.4445 29.7654 50.7952C22.9602 50.1459 16.5753 47.9745 11.4461 44.5651C6.31695 41.1557 2.68241 36.6671 1.01803 31.6865C-0.64636 26.706 -0.263077 21.4654 2.11773 16.6505C4.49853 11.8356 8.76598 7.67066 14.3617 4.70054C19.9575 1.73042 26.6209 0.0934786 33.4802 0.00388486C40.3395 -0.0857089 47.0752 1.37622 52.8061 4.19839L50.1091 6.44456C46.1602 4.58157 41.6866 3.43105 37.0416 3.08383C32.3967 2.73661 27.7074 3.2022 23.3441 4.44384C18.9808 5.68548 15.063 7.66918 11.8999 10.2383C8.73674 12.8074 6.41498 15.8917 5.11788 19.2475C3.82079 22.6033 3.58387 26.1388 4.42584 29.5749C5.26781 33.011 7.16561 36.2536 9.96941 39.0466C12.7732 41.8397 16.4062 44.1068 20.5816 45.6688C24.7571 47.2309 29.3605 48.0452 34.0286 48.0475H34.0576Z" fill="#103A60"/>
</g>
<defs>
<clipPath id="clip0">
<rect width="107" height="50.9575" fill="white"/>
</clipPath>
</defs>
</svg>
