<svg width="125" height="29" viewBox="0 0 125 29" fill="none" xmlns="http://www.w3.org/2000/svg">
<path d="M78.8028 8.98586V28.6883H72.9547V25.8109C72.3576 26.8106 71.4911 27.631 70.4495 28.1824C69.3715 28.7365 68.1685 29.0173 66.9506 28.9989C64.4314 28.9989 62.5487 28.312 61.3024 26.938C60.0561 25.5641 59.4343 23.4915 59.437 20.7202V8.98586H65.4351V20.8374C65.4351 23.2206 66.4821 24.4122 68.5761 24.4122C69.821 24.4122 70.8287 23.9981 71.5991 23.1698C72.3695 22.3416 72.7541 21.2535 72.7527 19.9056V8.98586H78.8028ZM101.735 0V28.6883H95.8093V25.7738C95.1953 26.7867 94.2995 27.6084 93.2262 28.1433C92.0573 28.7265 90.7597 29.0203 89.4474 28.9989C87.8092 29.0253 86.2005 28.5715 84.8289 27.696C83.4452 26.7923 82.3498 25.5264 81.6679 24.043C80.9121 22.4803 80.5342 20.6863 80.5342 18.6613C80.5342 16.6362 80.9121 14.8553 81.6679 13.3186C82.3487 11.8613 83.4377 10.622 84.8089 9.74379C86.1949 8.88967 87.807 8.45159 89.4454 8.48382C90.7291 8.4684 91.9978 8.75517 93.1442 9.31989C94.212 9.83622 95.1083 10.6374 95.7294 11.6308V0H101.735ZM94.6257 23.0331C95.4255 22.0368 95.8253 20.6043 95.8253 18.7355C95.8253 16.8954 95.4208 15.4772 94.6117 14.4809C93.8027 13.4846 92.6697 12.9859 91.2128 12.9846C89.7266 12.9846 88.573 13.4768 87.7519 14.4614C86.9309 15.4459 86.5203 16.8446 86.5203 18.6574C86.5203 20.5223 86.9309 21.9665 87.7519 22.9901C88.573 24.0137 89.7266 24.5255 91.2128 24.5255C92.6883 24.5281 93.826 24.0307 94.6257 23.0331ZM124.668 8.98586V28.6883H118.74V25.7738C118.126 26.7874 117.229 27.6092 116.155 28.1433C114.986 28.7249 113.689 29.0173 112.378 28.995C110.741 29.0383 109.128 28.6051 107.743 27.7505C106.359 26.8959 105.266 25.6584 104.603 24.1954C103.847 22.6548 103.469 20.8739 103.469 18.8527C103.469 16.8315 103.847 15.0305 104.603 13.4495C105.281 11.959 106.376 10.6865 107.764 9.77895C109.135 8.90695 110.742 8.45589 112.378 8.48382C113.694 8.46318 114.994 8.77112 116.155 9.3785C117.226 9.93474 118.12 10.7679 118.74 11.7871V8.98586H124.668ZM117.548 23.0507C118.348 22.0661 118.748 20.6414 118.748 18.7765C118.748 16.9116 118.348 15.4791 117.548 14.4789C116.749 13.4801 115.608 12.9813 114.127 12.9826C112.647 12.9839 111.493 13.5029 110.667 14.5395C109.846 15.5813 109.434 17.0197 109.433 18.8547C109.432 20.6896 109.836 22.0948 110.647 23.0702C111.456 24.0404 112.616 24.5262 114.127 24.5275C115.611 24.5288 116.751 24.0372 117.548 23.0526V23.0507ZM58.2154 28.9657H50.7638L42.7463 20.0326V28.9657H36.6643V0H42.7463V17.5908L50.3999 9.05227H57.6915L49.0303 18.6242L58.2154 28.9657ZM20.0016 28.9755L8.32934 15.8483L14.7033 28.9755H10.2847L3.78279 15.5924L6.48593 28.9755H3.77079L1.06566 15.5729V28.9755H0V0H1.06566V14.4555L3.80878 0H6.51591L3.7608 14.518L10.3887 0H14.7593L8.15739 14.4653L20.1456 0H26.9954L14.5953 14.9654L27.0533 28.9755H20.0016Z" fill="#41276D"/>
</svg>
